<svg class="illustration" width="1152" height="700" viewBox="0 0 1152 700" fill="none" xmlns="http://www.w3.org/2000/svg">
<path d="M690.019 629.66C394.131 605.181 230.734 354.885 283.976 277.165C337.217 199.444 786.098 -60.3375 821.593 145.897C851.551 319.963 985.907 654.139 690.019 629.66Z" fill="black" fill-opacity="0.08"/>
<path d="M593.871 218.602C605.868 169.668 505.121 158.71 468.344 193.148C417.912 240.373 441.495 356.333 536.687 356.333C628.391 356.333 580.621 272.648 593.871 218.602Z" fill="#EFEEF1"/>
<path d="M585.219 223.65C595.929 179.965 505.99 170.183 473.159 200.926C428.137 243.085 449.19 346.605 534.17 346.605C616.036 346.605 573.391 271.898 585.219 223.65Z" fill="black" fill-opacity="0.04"/>
<path d="M581.483 226.379C591.527 185.412 507.182 176.238 476.393 205.069C434.172 244.605 453.916 341.686 533.609 341.686C610.383 341.686 570.391 271.626 581.483 226.379Z" fill="#FFCFBA"/>
<path d="M573.05 239.96C598.739 188.29 507.389 194.593 516.71 211.936C546.139 266.696 498.611 292.797 553.783 314.399C625.273 342.39 552.31 281.676 573.05 239.96Z" fill="white" fill-opacity="0.14"/>
<path d="M491.518 258.369C491.518 242.022 482.761 193.563 469.332 250.196C467.716 257.012 450.511 314.853 508.741 325.802C542.896 332.224 491.518 304.956 491.518 258.369Z" fill="white" fill-opacity="0.14"/>
<path d="M532.754 294.726C527.785 290.253 525.513 281.365 525.717 277.285C529.898 275.347 540.465 272.634 549.278 277.285C544.382 302.376 535.814 297.48 532.754 294.726Z" fill="#E1F4FF"/>
<path d="M525.717 277.285C525.513 281.365 527.785 290.253 532.754 294.726C535.814 297.48 544.382 302.376 549.278 277.285M525.717 277.285C536.487 280.467 545.912 278.611 549.278 277.285M525.717 277.285C529.898 275.347 540.465 272.634 549.278 277.285" stroke="white" stroke-width="0.611971"/>
<path d="M535.496 285.426C534.027 285.671 532.844 287.058 531.824 286.65C535.19 295.83 537.332 293.688 540.085 294.3C542.288 294.789 544.063 289.404 544.675 286.65H543.451H543.451C542.839 286.65 540.085 286.65 540.085 285.426C540.085 284.202 537.332 285.12 535.496 285.426Z" fill="#FC9696"/>
<path d="M536.612 286.351C535.143 286.596 534.776 286.962 533.552 287.574C531.348 288.676 536.918 287.574 539.672 288.186C541.875 288.676 541.201 287.88 542.425 287.594C542.425 287.594 541.507 286.962 540.895 286.962C540.283 286.962 539.672 287.574 539.672 286.35C539.672 285.126 538.448 286.045 536.612 286.351Z" fill="white" fill-opacity="0.09"/>
<path d="M549.278 277.284C545.913 278.61 536.488 280.467 525.718 277.284C529.899 275.346 540.466 272.633 549.278 277.284Z" fill="black" fill-opacity="0.08" stroke="white" stroke-width="0.611971"/>
<path fill-rule="evenodd" clip-rule="evenodd" d="M618.724 219.333C618.724 219.333 608.533 248.708 617.194 285.12C618.724 291.553 650.24 273.187 650.24 273.187C662.582 246.566 672.822 192.896 618.724 219.333ZM548.265 365.449C543.97 356.606 542.992 354.593 535.495 320.921L531.824 300.728L522.338 284.508C522.338 284.508 517.692 264.587 519.584 265.537C522.56 267.032 524.183 271.614 525.054 275.62L527.846 269.821C529.784 268.801 532.258 267.734 530.906 270.739C528.865 275.273 527.441 279.919 526.632 283.059C529.077 285.736 538.062 295.138 541.615 292.77C542.625 292.096 544.005 289.654 545.438 287.118L545.439 287.117C547.915 282.736 550.55 278.072 551.713 281.754L549.571 290.016L546.511 302.868L551.713 316.025L578.945 371.408L557.526 386.402C553.03 375.258 550.282 369.601 548.265 365.449L548.265 365.449ZM616.888 421.896C616.888 421.896 617.324 400.671 616.888 388.849C616.589 380.752 614.448 374.117 612.286 367.419C610.32 361.33 608.337 355.188 607.708 347.847C605.872 326.428 625.761 301.338 625.761 301.338C642.591 286.038 658.196 288.18 670.435 301.338L676.249 318.473C676.249 318.473 676.972 334.536 676.249 344.788C675.746 351.915 674.539 357.322 673.32 362.786L673.32 362.787C672.182 367.884 671.034 373.031 670.435 379.67C668.955 396.094 668.387 405.533 670.435 421.896C671.109 427.278 671.903 432.159 672.683 436.961V436.961C674.501 448.146 676.249 458.897 676.249 474.525C676.249 487.032 663.843 496.353 651.77 499.616C626.781 506.37 604.442 501.032 586.582 496.765C580.166 495.232 574.329 493.837 569.154 493.19C566.868 492.905 564.622 492.606 562.414 492.313C540.924 489.46 522.963 487.075 505.509 501.146C497.841 507.328 494.389 513.439 490.362 520.567C488.612 523.664 486.755 526.952 484.396 530.521C468.324 554.841 451.287 590.774 441.171 612.109C435.555 623.953 432.072 631.299 432.072 629.66C432.072 629.66 370.967 630.895 367.51 629.66C361.119 627.378 368.515 624.257 379.215 619.742C390.032 615.178 404.224 609.19 410.959 601.204C411.724 600.297 412.986 599.332 414.42 598.236C417.342 596.004 420.98 593.224 422.587 589.27C428.304 575.204 433.456 560.654 438.539 546.298L438.539 546.298C450.596 512.247 462.266 479.288 480.174 456.472C484.396 451.093 515.321 435.971 530.294 435.971C544.839 435.971 560.41 439.051 574.191 441.777C591.431 445.186 605.87 448.042 611.992 443.621C618.033 439.258 616.888 421.896 616.888 421.896Z" fill="
#eed1b4"/>
<path d="M527.846 269.821L525.092 275.634L525.704 280.224L526.622 283.284C527.54 279.306 527.778 277.616 530.294 272.269C532.742 267.067 529.988 268.903 527.846 269.821Z" fill="#313131" fill-opacity="0.18"/>
<path fill-rule="evenodd" clip-rule="evenodd" d="M611.074 417.612C611.074 417.612 611.51 401.283 611.074 389.461C610.933 385.624 610.396 382.417 609.649 379.527C597.248 397.358 585.214 410.597 580.169 409.045C568.236 405.373 556.609 397.723 543.757 354.273C553.675 352.462 558.966 351.284 568.236 349.071C571.849 356.727 571.836 356.666 571.782 356.423C571.711 356.095 571.566 355.436 580.169 372.977C589.147 349.602 607.592 310.687 627.172 300.093C643.462 286.167 658.539 288.549 670.435 301.338L676.249 318.473C676.249 318.473 671.158 336.066 670.435 346.317C669.937 353.386 668.504 358.682 667.059 364.022C665.689 369.09 664.307 374.196 663.704 380.894L670.435 383.342L669.823 385.484L663.586 382.424C663.448 384.593 663.446 386.619 663.548 388.543L669.517 390.073V392.521L663.704 390.636C663.856 392.238 664.078 393.775 664.352 395.275L669.517 396.193V398.029L664.652 396.702C665.101 398.541 665.591 399.364 666.118 400.249C667.366 402.345 668.823 404.792 670.435 421.896C671.059 428.51 672.01 434.358 672.964 440.22L672.964 440.22C674.603 450.292 676.249 460.406 676.249 474.526C676.249 487.032 663.843 496.353 651.77 499.616C626.781 506.37 604.442 501.033 586.582 496.765C580.166 495.232 574.329 493.838 569.154 493.191C566.868 492.905 564.622 492.607 562.413 492.313C540.924 489.46 522.963 487.075 505.509 501.146C494.511 510.013 489.292 484.623 489.292 481.563C481.681 469.482 481.193 465.242 480.455 458.828L480.455 458.827C480.369 458.078 480.279 457.298 480.174 456.473C479.312 449.689 515.321 435.972 530.294 435.972H605.872C613.324 435.972 611.074 417.612 611.074 417.612ZM364.756 628.13C362.002 624.152 402.392 608.853 402.392 608.853C410.653 617.727 435.255 615.401 441.864 609.771L432.684 629.354C432.684 629.354 368.727 633.867 364.756 628.13Z" fill="

#6f186f"/>
<path d="M402.392 608.853C402.392 608.853 362.002 624.152 364.756 628.13C368.727 633.867 432.684 629.354 432.684 629.354L441.864 609.771C435.255 615.401 410.653 617.727 402.392 608.853Z" fill="black" fill-opacity="0.04"/>
<path d="M658.502 430.463C663.784 422.746 670.129 382.118 670.129 382.118C667.192 407.576 671.353 429.545 673.801 437.501L649.934 441.479C649.934 441.479 651.094 441.286 658.502 430.463Z" fill="black" fill-opacity="0.08"/>
<path d="M580.17 372.977C565.192 342.44 576.726 367.061 568.236 349.071L565.482 349.683L578.028 375.998C580.17 379.058 582.617 380.855 585.677 370.49C591.545 350.613 615.358 298.367 642.591 298.367C617.867 289.31 591.491 343.5 580.17 372.977Z" fill="black" fill-opacity="0.04"/>
<path d="M610.462 384.565C635.247 350.907 673.067 287.078 626.067 301.031" stroke="white" stroke-opacity="0.08" stroke-width="0.611971"/>
<path d="M626.067 245.342C617.71 238.238 614.746 227.595 614.746 227.595C614.746 204.034 633.717 202.81 639.225 204.034C639.225 204.034 661.768 203.205 671.659 212.907C681.819 222.874 675.735 226.78 682.063 239.528C686.145 247.753 682.063 250.147 685.123 258.805C688.945 269.621 682.369 288.996 685.123 302.867C687.876 316.738 699.196 320.759 698.892 334.078C698.603 346.744 685.123 350.783 685.123 363.452C685.123 389.461 665.846 381.811 665.846 377.527C665.846 377.527 653.81 342.441 648.404 329.794C642.999 317.146 629.395 309.123 626.067 292.463C624.125 282.737 622.156 276.181 626.067 267.067C629.139 259.908 642.097 259.315 639.225 252.073C637.097 246.708 630.465 249.08 626.067 245.342Z" fill="#17256F"/>
<path d="M485.926 503.9C485.926 503.9 459.917 552.246 440.64 601.815C438.604 607.05 432.684 629.66 432.684 629.66C439.722 613.443 473.992 542.76 498.165 503.9H485.926Z" fill="black" fill-opacity="0.21"/>
<path d="M656.36 261.253C661.57 253.128 641.978 245.954 643.508 237.692C645.038 229.431 648.001 253.249 656.36 233.103C664.718 212.956 661.079 243.701 665.539 250.544C669.396 256.459 669.899 254.066 672.883 257.581C679.472 265.344 677.113 295.348 675.943 291.546C669.823 271.657 671.329 270.838 665.539 269.209C663.584 268.658 664.768 271.214 662.786 271.657C653.758 273.674 672.883 317.205 665.539 312.659C659.114 308.681 642.434 279.488 651.77 269.209C656.067 264.477 652.91 266.634 656.36 261.253Z" fill="white" fill-opacity="0.06"/>
<path d="M694.302 331.63C693.939 325.063 687.264 316.331 687.264 316.331C687.264 316.331 689.754 324.902 689.1 331.63C688.272 340.157 681.145 353.661 681.145 353.661C681.145 353.661 694.855 341.636 694.302 331.63Z" fill="white" fill-opacity="0.14"/>
<path d="M558.445 335.302C549.85 322.41 547.429 305.315 547.429 305.315C554.754 322.725 558.739 330.508 567.624 348.459C567.624 348.459 559.669 337.137 558.445 335.302Z" fill="black" fill-opacity="0.22"/>
<path d="M553.549 352.437C541.003 347.235 542.451 338.974 534.578 316.331C537.68 331.058 539.465 339.326 543.757 354.273L553.549 352.437Z" fill="black" fill-opacity="0.21"/>
<path d="M544.981 301.337C543.578 295.959 550.183 287.568 550.183 287.568L546.511 302.867L547.429 305.315C547.429 305.315 545.576 303.618 544.981 301.337Z" fill="black" fill-opacity="0.15"/>
<path d="M428.401 575.806C438.878 544.014 445.154 526.665 457.163 496.556L444.618 548.88L428.401 575.806Z" fill="black" fill-opacity="0.1"/>
<path d="M610.768 372.326C598.223 383.954 604.954 383.648 579.864 408.738C586.289 412.104 604.036 387.319 609.85 379.364C612.054 393.45 610.768 406.291 611.38 418.836L618.112 418.836C618.112 418.836 619.336 368.654 616.888 366.512C615.506 365.304 610.768 372.326 610.768 372.326Z" fill="black" fill-opacity="0.06"/>
<path d="M708.032 406.384C747.198 371.808 765.557 239.01 765.557 239.01C770.453 183.015 797.074 196.478 802.888 239.01L728.533 630.366H493.842C493.842 630.366 464 524.511 493.842 466.358C505.776 443.103 512.088 433.63 536.068 423.52C592.676 399.653 659.042 449.633 708.032 406.384Z" fill="#F8F7FF"/>
<path d="M504.246 569.993C508.53 520.022 504.246 448.305 504.246 448.305C466.915 494.815 481.501 585.794 494.148 629.448H545.86H575.54C575.54 629.448 499.962 619.963 504.246 569.993Z" fill="black" fill-opacity="0.02"/>
<path d="M760.662 398.429C769.178 373.19 768.923 371.196 776.267 332.03C776.267 332.03 789.424 279.4 789.424 258.287C789.424 249.105 802.888 239.01 802.888 239.01L728.533 630.366H585.332L631.842 609.559L711.398 576.512C711.398 576.512 735.571 472.783 760.662 398.429Z" fill="#121214" fill-opacity="0.04"/>
<path d="M695.793 415.258C621.744 429.333 540.352 400.57 525.665 429.333C562.791 439.635 667.397 443.164 695.793 415.258Z" fill="#9599FF"/>
<path d="M755.965 239.933C762.796 240.332 764.808 255.058 764.808 255.058L758.758 285.541C758.758 285.541 753.173 298.501 749.217 297.641C743.865 296.478 742.864 289.281 741.073 282.981C737.884 271.77 739.897 263.777 745.261 253.429C748.357 247.457 752.475 239.729 755.965 239.933Z" fill="#9599FF"/>
<path d="M755.965 239.932C762.796 240.331 764.808 255.057 764.808 255.057L758.758 285.541C758.758 285.541 753.173 298.501 749.217 297.641C743.865 296.477 756.361 289.28 754.569 282.981C751.381 271.769 753.393 263.777 758.758 253.429C761.854 247.456 752.475 239.728 755.965 239.932Z" fill="black" fill-opacity="0.26"/>
<path d="M526.889 448.916C519.247 441.493 526.889 429.945 526.889 429.945C651.731 450.678 697.935 422.602 723.331 388.637C723.331 388.637 697.629 454.608 678.658 448.916C620.52 431.475 537.598 459.32 526.889 448.916Z" fill="black" fill-opacity="0.02"/>
<path d="M692.959 414.857C622.888 437.806 518.241 416.387 523.443 428.933C558.631 438.724 665.42 443.008 692.959 414.857Z" fill="black" fill-opacity="0.17"/>
<path d="M298.147 390.94C297.785 389.403 298.951 387.931 300.53 387.931H440.028C441.38 387.931 442.476 389.027 442.476 390.379V395.887C442.476 397.239 441.38 398.335 440.028 398.335H301.825C300.69 398.335 299.703 397.553 299.443 396.447L298.147 390.94Z" fill="#F8F6FF"/>
<path d="M298.547 392.975C298.45 392.589 298.742 392.215 299.141 392.215H441.758C442.096 392.215 442.37 392.489 442.37 392.827V397.723C442.37 398.061 442.096 398.335 441.758 398.335H300.365C300.084 398.335 299.839 398.143 299.771 397.871L298.547 392.975Z" fill="black" fill-opacity="0.05"/>
<path fill-rule="evenodd" clip-rule="evenodd" d="M377.628 332.895C374.262 331.365 371.202 331.059 366 332.895L365.264 360.13C365.17 363.61 367.804 366.517 371.202 366.831V387.666H373.038V366.745C376.135 366.16 378.452 363.398 378.364 360.13L377.628 332.895Z" fill="#EAF0FF"/>
<path d="M366.306 333.2C368.754 334.016 374.323 335.159 377.016 333.2C375.486 332.384 371.202 331.241 366.306 333.2Z" fill="#8699FF" fill-opacity="0.08"/>
<path d="M366.612 346.052H377.322L377.744 359.566C377.848 362.887 375.184 365.635 371.862 365.635V365.635C368.503 365.635 365.826 362.829 365.983 359.475L366.612 346.052Z" fill="#ACAFFF"/>
<path d="M374.874 361.348C377.132 358.288 377.016 347.273 377.016 347.273C377.264 354.433 378.546 361.348 375.792 363.49C373.714 365.106 371.145 365.073 368.754 363.796C368.644 363.76 373.345 363.419 374.874 361.348Z" fill="white" fill-opacity="0.39"/>
<rect x="367.53" y="346.664" width="9.17957" height="1.22394" fill="white" fill-opacity="0.24"/>
</svg>
